<svg version="1.1" xmlns="http://www.w3.org/2000/svg" width="1024" height="1024" viewBox="0 0 1024 1024">
<path d="M967.488 0h-910.976c-31.232 0-56.512 25.28-56.512 56.512v910.976c0 31.232 25.28 56.512 56.512 56.512h490.432v-396.544h-133.504v-154.496h133.504v-114.112c0-132.224 80.768-204.16 198.784-204.16 56.512 0 105.088 4.096 119.232 6.016v138.24h-81.92c-64 0-76.48 30.72-76.48 75.52v98.56h152.96l-19.84 154.88h-133.12v396.096h260.928c31.232 0 56.512-25.28 56.512-56.512v-910.976c0-31.232-25.28-56.512-56.512-56.512z"></path>
</svg>
