<svg version="1.1" xmlns="http://www.w3.org/2000/svg" width="1024" height="1024" viewBox="0 0 1024 1024">
<path fill="#000" d="M618.88 744.064l147.84 147.84c30.208 30.080 30.208 79.168 0 109.44-30.272 30.208-79.36 30.208-109.44 0l-145.28-145.28-145.984 145.28c-14.72 15.104-34.56 22.656-54.4 22.656s-39.68-7.552-54.4-22.656c-30.72-30.272-30.72-79.36 0-109.44l147.84-147.84c-53.824-12.224-105.664-33.472-153.408-63.552-36.224-22.784-47.104-70.528-24.32-106.752 22.72-36.224 70.528-47.168 106.752-24.32 108.16 68.032 247.552 68.032 355.84 0 36.224-22.848 83.968-11.904 106.752 24.32 22.784 36.16 11.904 83.968-24.192 106.752-47.872 30.016-99.84 51.392-153.6 63.552zM512 528.512c-145.728 0-264.32-118.528-264.32-264.192 0-145.792 118.592-264.32 264.32-264.32s264.32 118.528 264.32 264.32c0 145.664-118.528 264.192-264.32 264.192zM512 154.88c-60.288 0-109.44 49.088-109.44 109.44 0 60.288 49.152 109.44 109.44 109.44 60.352 0 109.44-49.152 109.44-109.44 0-60.352-49.088-109.44-109.44-109.44z"></path>
</svg>
