<svg version="1.1" xmlns="http://www.w3.org/2000/svg" width="1024" height="1024" viewBox="0 0 1024 1024">
<path d="M1024 192c-34.133 17.067-76.8 25.6-119.467 34.133 42.667-25.6 76.8-68.267 93.867-110.933-42.667 25.6-85.333 42.667-136.533 51.2-34.133-42.667-93.867-68.267-153.6-68.267-119.467 0-213.333 93.867-213.333 204.8 0 17.067 0 34.133 8.533 42.667-170.667-8.533-332.8-93.867-435.2-213.333-17.067 34.133-25.6 68.267-25.6 110.933 0 68.267 34.133 136.533 93.867 170.667-34.133 0-68.267-8.533-93.867-25.6v0c0 102.4 68.267 179.2 170.667 204.8-17.067 8.533-34.133 8.533-51.2 8.533s-25.6 0-42.667 0c25.6 85.333 102.4 145.067 196.267 145.067-68.267 51.2-162.133 85.333-264.533 85.333-17.067 0-34.133 0-51.2 0 93.867 59.733 204.8 93.867 324.267 93.867 384 0 597.333-315.733 597.333-588.8 0-8.533 0-17.067 0-25.6 34.133-34.133 68.267-76.8 102.4-119.467v0z"></path>
</svg>
