<svg version="1.1" xmlns="http://www.w3.org/2000/svg" width="1024" height="1024" viewBox="0 0 1024 1024">
<path d="M500.992 801.664h61.248s18.432-2.048 27.904-12.16c8.96-9.408 8.96-26.88 8.96-26.88s-1.28-82.176 37.12-94.272c37.76-11.968 85.76 79.36 136.96 114.432 39.040 26.88 68.48 21.12 68.48 21.12l136.96-1.92s71.68-4.48 37.76-60.8c-2.56-4.48-19.2-41.6-101.12-117.76-85.76-79.36-74.24-66.56 28.8-204.16 62.72-83.84 88.32-135.040 80-156.8-7.040-20.48-53.76-15.36-53.76-15.36l-153.6 1.28s-11.52-1.28-19.84 3.84-13.44 16.64-13.44 16.64-24.32 65.28-56.96 120.32c-69.184 116.416-96.704 122.816-107.584 115.136-25.792-16.64-19.2-67.392-19.2-103.68 0-112.64 17.28-160-33.28-172.16-16.64-3.84-29.056-6.4-71.872-7.040-55.040-0.64-101.44 0.384-127.744 13.248-17.28 8.64-30.72 27.776-23.040 28.8 10.24 1.28 33.28 6.272 45.44 22.912 16 21.568 15.36 69.76 15.36 69.76s8.96 132.928-21.12 149.44c-21.12 11.136-49.28-11.968-110.72-117.568-31.36-53.76-55.040-113.92-55.040-113.92s-4.48-10.88-12.8-17.28c-9.6-7.040-23.68-9.6-23.68-9.6l-146.56 1.28s-21.76 0.64-29.44 10.24c-7.040 8.32-0.64 26.24-0.64 26.24s114.56 268.16 244.48 403.2c119.040 123.84 254.080 115.84 254.080 115.84z"></path>
</svg>
